<svg width="10" height="17" viewBox="0 0 10 17" fill="none" xmlns="http://www.w3.org/2000/svg">
<path fill-rule="evenodd" clip-rule="evenodd" d="M0.680771 1.05968C0.737928 1.00238 0.805828 0.956913 0.880583 0.925893C0.955337 0.894873 1.03548 0.878906 1.11641 0.878906C1.19735 0.878906 1.27749 0.894873 1.35224 0.925893C1.427 0.956913 1.4949 1.00238 1.55205 1.05968L8.9358 8.44343C8.9931 8.50058 9.03857 8.56848 9.06959 8.64324C9.10061 8.71799 9.11657 8.79813 9.11657 8.87907C9.11657 8.96 9.10061 9.04014 9.06959 9.1149C9.03857 9.18965 8.9931 9.25755 8.9358 9.31471L1.55205 16.6985C1.43651 16.814 1.27981 16.8789 1.11641 16.8789C0.953015 16.8789 0.79631 16.814 0.680771 16.6985C0.565232 16.5829 0.500322 16.4262 0.500322 16.2628C0.500322 16.0994 0.565232 15.9427 0.680771 15.8272L7.63011 8.87907L0.680771 1.93096C0.623469 1.8738 0.578006 1.8059 0.546986 1.73115C0.515967 1.65639 0.5 1.57625 0.5 1.49532C0.5 1.41438 0.515967 1.33424 0.546986 1.25949C0.578006 1.18474 0.623469 1.11683 0.680771 1.05968Z" fill="#FF6551"/>
</svg>
